/* XPM */
static char * podiff_xpm[] = {
"64 64 3 1",
" 	c None",
".	c #EF4646",
"+	c #5DC676",
"                                                                ",
"                                                                ",
"  ..........................      ++++++++++++++++++++++++++    ",
"  ..........................      ++++++++++++++++++++++++++    ",
"  ..........................      ++++++++++++++++++++++++++    ",
"  ..........................      ++++++++++++++++++++++++++    ",
"                                                                ",
"                                                                ",
"                                                                ",
"                                                                ",
"  ..................              ++++++++++++++++++            ",
"  ..................              ++++++++++++++++++            ",
"  ..................              ++++++++++++++++++            ",
"  ..................              ++++++++++++++++++            ",
"                                                                ",
"                                                                ",
"                                                                ",
"                                                                ",
"  ......................          ++++++++++++++++++++++        ",
"  ......................          ++++++++++++++++++++++        ",
"  ......................          ++++++++++++++++++++++        ",
"  ......................          ++++++++++++++++++++++        ",
"                                                                ",
"                                                                ",
"                                                                ",
"                                                                ",
"                                  ++++++++++++++++++++++++++    ",
"                                  ++++++++++++++++++++++++++    ",
"                                  ++++++++++++++++++++++++++    ",
"                                  ++++++++++++++++++++++++++    ",
"                                                                ",
"                                                                ",
"                                                                ",
"                                                                ",
"                                  ++++++++++++++++++            ",
"                                  ++++++++++++++++++            ",
"                                  ++++++++++++++++++            ",
"                                  ++++++++++++++++++            ",
"                                                                ",
"                                                                ",
"                                                                ",
"                                                                ",
"  ..........................      ++++++++++++++++++++++        ",
"  ..........................      ++++++++++++++++++++++        ",
"  ..........................      ++++++++++++++++++++++        ",
"  ..........................      ++++++++++++++++++++++        ",
"                                                                ",
"                                                                ",
"                                                                ",
"                                                                ",
"  ..........                                                    ",
"  ..........                                                    ",
"  ..........                                                    ",
"  ..........                                                    ",
"                                                                ",
"                                                                ",
"                                                                ",
"                                                                ",
"  ..................                                            ",
"  ..................                                            ",
"  ..................                                            ",
"  ..................                                            ",
"                                                                ",
"                                                                "};
